<svg width="102" height="70" viewBox="0 0 102 70" fill="none" xmlns="http://www.w3.org/2000/svg">
<rect width="70" height="70" rx="5" fill="#E27100"/>
<path d="M69 0.0576172C87.3993 1.09419 102 16.3413 102 35C102 53.6587 87.3993 68.9048 69 69.9414V70H59V0H69V0.0576172Z" fill="#E27100"/>
<path d="M53.9668 10.8438L47.7285 59.8105L40.999 58.9658L47.2373 10L53.9668 10.8438ZM34.2178 25.4531L24.667 34.9316L34.2178 44.4092L29.3838 49.2051L15 34.9316H15.002L15 34.9297L29.3848 20.6562L34.2178 25.4531ZM80.002 34.9287L79.999 34.9297L80.001 34.9316L65.6172 49.2051L60.7832 44.4082L70.335 34.9287L60.7842 25.4521L65.6172 20.6562L80.002 34.9287Z" fill="#FFF3C6"/>
</svg>
